<svg width="1000" height="926" viewBox="0 0 1000 926" fill="none" xmlns="http://www.w3.org/2000/svg">
<path d="M647.368 566.315H647.369C703.158 566.315 794.737 566.316 794.737 480H900V631.579H542.105V0H647.368V566.315Z" fill="#393BB9"/>
<path d="M205.323 210.526C205.323 91.7895 303.622 62.807 352.771 63.1579V631.579H458.091V0H352.771C256.93 0 99.1608 29.4737 100.003 210.526C100.846 391.579 100.354 566.667 100.003 631.579H205.323L205.323 210.526Z" fill="#53A1FB"/>
<path d="M6.44219 793.443C5.15375 793.443 4.02637 793.067 3.06004 792.315C2.09371 791.564 1.34212 790.705 0.805273 789.738C0.268424 788.665 0 787.483 0 786.195C0 784.692 0.751588 782.33 2.25477 779.109C3.75794 775.888 5.85165 771.378 8.5359 765.58C11.2201 759.675 14.2265 752.213 17.555 743.193C19.8097 737.395 21.9034 731.866 23.8361 726.605C25.8761 721.236 27.7551 716.297 29.473 711.788C31.1909 707.171 32.6941 703.091 33.9825 699.548C35.271 696.004 36.3447 693.052 37.2036 690.69C39.0289 685.858 40.9079 682.368 42.8405 680.221C44.7732 678.074 47.1353 677 49.9269 677C53.6849 677 56.906 678.235 59.5902 680.704C62.3818 683.066 64.9587 686.771 67.3208 691.817C68.1798 693.75 69.4146 696.917 71.0251 701.319C72.743 705.614 74.5683 710.714 76.501 716.619C78.541 722.417 80.5273 728.591 82.46 735.141C84.5 741.69 86.3253 748.132 87.9358 754.467C89.6538 760.695 90.9959 766.439 91.9622 771.7C93.0359 776.854 93.5728 781.041 93.5728 784.262C93.5728 785.873 93.197 787.43 92.4454 788.933C91.6938 790.329 90.6738 791.403 89.3853 792.154C88.2043 793.013 86.8621 793.443 85.359 793.443C83.8558 793.443 82.621 793.013 81.6547 792.154C80.7958 791.295 80.0978 790.007 79.561 788.289C79.1315 786.463 78.702 784.209 78.2726 781.524C76.8768 772.291 74.9978 762.95 72.6356 753.501C70.2735 744.052 67.643 735.141 64.744 726.766C61.845 718.391 59.1071 711.09 56.5302 704.862C53.9533 698.635 51.8059 694.125 50.088 691.334L52.6649 691.656C51.2691 694.448 49.6585 698.098 47.8332 702.608C46.1153 707.01 44.29 711.949 42.3574 717.425C40.4247 722.793 38.4921 728.269 36.5594 733.852C34.7341 739.328 32.9088 744.482 31.0835 749.314C29.0435 755.004 26.9498 760.48 24.8024 765.741C22.7624 770.895 20.7761 775.458 18.8434 779.431C16.9107 783.403 15.3002 786.463 14.0118 788.611C12.9381 790.436 11.8107 791.671 10.6296 792.315C9.55591 793.067 8.1601 793.443 6.44219 793.443Z" fill="#324AB2"/>
<path d="M130.502 793.443C126.959 793.443 124.006 792.584 121.644 790.866C119.389 789.148 117.618 786.893 116.329 784.101C115.148 781.202 114.289 778.089 113.752 774.76C113.323 771.324 113.108 767.996 113.108 764.775C113.108 761.983 113.269 758.655 113.591 754.789C114.021 750.924 114.504 746.898 115.041 742.71C115.578 738.523 116.168 734.604 116.812 730.953C117.457 727.303 117.994 724.457 118.423 722.417C119.067 718.659 119.765 715.76 120.517 713.72C121.268 711.68 122.396 710.66 123.899 710.66C125.402 710.66 126.798 711.144 128.086 712.11C129.482 713.076 130.609 714.311 131.468 715.814C132.435 717.317 132.918 718.982 132.918 720.807C132.918 722.525 132.649 724.994 132.113 728.215C131.576 731.436 130.932 735.033 130.18 739.006C129.428 742.979 128.784 747.005 128.247 751.085C127.71 755.058 127.442 758.655 127.442 761.876C127.442 764.56 127.549 767.244 127.764 769.929C127.979 772.613 128.516 774.814 129.375 776.532C130.234 778.25 131.468 779.109 133.079 779.109C136.515 779.109 140.273 776.049 144.353 769.929C148.433 763.808 152.674 755.38 157.076 744.643C159.116 739.919 160.78 735.517 162.069 731.436C163.465 727.356 164.646 723.813 165.612 720.807C166.686 717.693 167.813 715.277 168.994 713.559C170.175 711.841 171.571 710.983 173.182 710.983C175.651 710.983 177.852 711.841 179.785 713.559C181.717 715.277 182.899 717.693 183.328 720.807C183.865 723.921 184.455 727.517 185.1 731.598C185.851 735.678 186.603 739.865 187.354 744.16C188.106 748.347 188.911 752.266 189.77 755.917C191.381 762.144 193.045 767.244 194.763 771.217C196.588 775.082 198.091 778.196 199.272 780.558C200.561 782.813 201.205 784.692 201.205 786.195C201.205 787.483 200.883 788.665 200.239 789.738C199.702 790.812 198.95 791.617 197.984 792.154C197.018 792.798 195.944 793.12 194.763 793.12C192.293 793.12 190.039 791.993 187.999 789.738C186.066 787.483 184.241 784.316 182.523 780.236C180.912 776.156 179.302 771.378 177.691 765.902C176.617 762.037 175.544 757.903 174.47 753.501C173.504 749.099 172.645 744.697 171.893 740.294C171.142 735.892 170.551 731.812 170.122 728.054H175.597C174.846 730.631 173.987 733.369 173.021 736.268C172.162 739.167 171.088 742.388 169.799 745.931C168.511 749.367 166.9 753.34 164.968 757.849C162.391 764.292 159.277 770.251 155.627 775.727C151.976 781.095 148.003 785.39 143.709 788.611C139.521 791.832 135.119 793.443 130.502 793.443Z" fill="#324AB2"/>
<path d="M229.602 793.443C225.737 793.443 222.731 790.973 220.583 786.034C218.436 781.095 217.362 774.545 217.362 766.385C217.362 760.695 217.899 756.4 218.973 753.501C220.046 750.495 221.55 748.455 223.482 747.381C224.556 746.737 225.898 746.361 227.509 746.254C229.226 746.039 231.266 745.931 233.629 745.931C241.467 745.931 249.305 745.556 257.143 744.804C265.088 743.945 272.496 742.335 279.368 739.972L284.522 751.085C279.368 753.233 273.57 754.843 267.128 755.917C260.686 756.99 254.083 757.742 247.318 758.172C240.661 758.494 234.219 758.655 227.992 758.655L219.617 757.205C219.617 750.87 219.724 744.213 219.939 737.234C220.154 730.255 220.261 723.974 220.261 718.391C220.261 715.922 220.637 713.882 221.388 712.271C222.247 710.66 223.536 709.855 225.254 709.855C227.938 709.855 230.085 710.929 231.696 713.076C233.414 715.116 234.273 718.391 234.273 722.901C234.273 725.263 234.165 728.108 233.951 731.436C233.843 734.765 233.682 738.254 233.468 741.905C233.253 745.556 233.038 749.045 232.823 752.374C232.716 755.595 232.662 758.279 232.662 760.426C232.662 766.654 232.877 772.237 233.307 777.176C233.736 782.008 233.951 785.658 233.951 788.128C233.951 789.631 233.521 790.866 232.662 791.832C231.911 792.906 230.891 793.443 229.602 793.443ZM284.683 793.443C282.106 793.443 279.959 791.886 278.241 788.772C276.523 785.658 275.234 781.417 274.375 776.049C273.517 770.573 273.087 764.56 273.087 758.01C273.087 747.703 273.302 739.543 273.731 733.53C274.268 727.41 274.859 722.578 275.503 719.035C275.825 716.673 276.523 714.579 277.597 712.754C278.67 710.929 280.173 710.016 282.106 710.016C284.468 710.016 286.294 711.144 287.582 713.398C288.87 715.546 289.515 718.176 289.515 721.29C289.515 725.155 289.192 729.343 288.548 733.852C287.904 738.362 287.582 743.247 287.582 748.508C287.582 754.95 287.85 760.802 288.387 766.063C288.924 771.217 289.461 775.565 289.998 779.109C290.642 782.652 290.964 785.282 290.964 787C290.964 788.933 290.374 790.49 289.192 791.671C288.011 792.852 286.508 793.443 284.683 793.443Z" fill="#324AB2"/>
<path d="M322.82 793.281C320.458 793.281 318.472 792.1 316.861 789.738C315.251 787.376 314.177 784.101 313.64 779.914C313.425 778.089 313.264 775.565 313.157 772.344C313.05 769.123 312.942 765.526 312.835 761.554C312.835 757.474 312.781 753.394 312.674 749.314C312.674 745.234 312.674 741.476 312.674 738.04C312.674 734.604 312.674 731.866 312.674 729.826C312.674 724.243 313.372 720.163 314.767 717.586C316.163 714.902 318.579 713.291 322.015 712.754C325.451 712.217 329.101 711.842 332.967 711.627C336.832 711.305 340.697 711.144 344.563 711.144C347.354 711.144 350.253 711.251 353.26 711.466C356.373 711.573 359.272 711.788 361.956 712.11C364.641 712.432 366.788 712.915 368.399 713.559C369.687 714.096 370.707 714.902 371.459 715.975C372.21 716.942 372.586 718.015 372.586 719.196C372.586 721.344 371.566 722.901 369.526 723.867C367.486 724.833 365.178 725.316 362.601 725.316C360.346 725.316 358.306 725.209 356.481 724.994C354.655 724.78 352.615 724.619 350.361 724.511C348.106 724.296 345.26 724.189 341.825 724.189C337.637 724.189 334.04 724.404 331.034 724.833C328.028 725.263 324.753 725.907 321.21 726.766L327.813 721.612C327.491 724.404 327.169 727.464 326.847 730.792C326.632 734.013 326.471 737.664 326.363 741.744C326.256 745.717 326.202 750.226 326.202 755.273C326.202 760.534 326.31 765.526 326.524 770.251C326.847 774.868 327.169 778.787 327.491 782.008C327.813 785.229 327.974 787.322 327.974 788.289C327.974 790.007 327.491 791.241 326.524 791.993C325.558 792.852 324.323 793.281 322.82 793.281Z" fill="#324AB2"/>
<path d="M407.53 794.248C401.732 794.248 396.954 793.12 393.196 790.866C389.438 788.611 386.432 785.712 384.177 782.169C382.03 778.625 380.526 774.76 379.667 770.573C378.808 766.385 378.379 762.305 378.379 758.333C378.379 753.608 378.755 748.616 379.506 743.355C380.365 737.986 381.493 732.886 382.889 728.054C384.284 723.115 385.841 719.035 387.559 715.814C388.311 714.418 389.223 713.291 390.297 712.432C391.371 711.573 392.552 710.983 393.84 710.66C395.129 710.231 396.471 710.016 397.867 710.016C399.155 710.016 400.121 710.446 400.766 711.305C401.517 712.056 401.893 713.13 401.893 714.526C401.893 716.136 401.41 718.176 400.443 720.646C399.477 723.115 398.35 726.122 397.061 729.665C395.773 733.208 394.646 737.449 393.679 742.388C392.713 747.22 392.23 752.91 392.23 759.46C392.23 765.902 393.464 771.271 395.934 775.565C398.511 779.86 402.537 782.008 408.013 782.008C412.093 782.008 415.958 780.934 419.609 778.787C423.26 776.639 426.32 773.74 428.789 770.09C431.366 766.332 432.762 762.144 432.977 757.527L434.748 760.265C431.957 759.406 428.682 758.655 424.924 758.01C421.166 757.366 417.193 756.937 413.006 756.722C408.818 756.4 404.685 756.346 400.605 756.561C396.632 756.668 393.142 756.99 390.136 757.527L390.297 747.059C396.095 746.951 401.302 746.307 405.919 745.126C410.644 743.838 414.724 742.227 418.16 740.294C421.703 738.254 424.387 736.107 426.212 733.852C428.038 731.49 428.95 729.235 428.95 727.088C428.95 725.692 428.36 724.511 427.179 723.545C426.105 722.578 424.172 722.095 421.381 722.095C418.267 722.095 415.207 722.525 412.2 723.384C409.302 724.135 406.349 725.155 403.342 726.444C400.336 727.732 397.008 729.074 393.357 730.47C391.854 730.9 390.458 730.739 389.17 729.987C387.989 729.128 387.452 728.054 387.559 726.766C387.559 725.263 388.311 723.867 389.814 722.578C391.317 721.183 392.82 720.163 394.323 719.518C400.121 716.083 405.705 713.72 411.073 712.432C416.442 711.036 421.595 710.338 426.534 710.338C430.507 710.338 433.836 710.929 436.52 712.11C439.311 713.291 441.405 714.902 442.801 716.942C444.304 718.874 445.056 721.022 445.056 723.384C445.056 726.927 443.982 730.309 441.835 733.53C439.795 736.644 436.949 739.543 433.299 742.227C429.648 744.804 425.622 747.005 421.22 748.83C416.817 750.656 412.308 751.944 407.691 752.696L408.818 746.415C414.187 746.2 419.126 746.254 423.635 746.576C428.252 746.79 432.279 747.381 435.714 748.347C439.15 749.314 441.835 750.763 443.767 752.696C445.807 754.521 446.827 756.829 446.827 759.621C446.827 764.023 445.7 768.318 443.445 772.505C441.298 776.585 438.399 780.29 434.748 783.618C431.098 786.839 426.91 789.416 422.186 791.349C417.462 793.281 412.576 794.248 407.53 794.248Z" fill="#324AB2"/>
<path d="M483.438 793.443C479.895 793.443 476.942 792.584 474.58 790.866C472.325 789.148 470.554 786.893 469.265 784.101C468.084 781.202 467.225 778.089 466.689 774.76C466.259 771.324 466.044 767.996 466.044 764.775C466.044 761.983 466.205 758.655 466.528 754.789C466.957 750.924 467.44 746.898 467.977 742.71C468.514 738.523 469.104 734.604 469.749 730.953C470.393 727.303 470.93 724.457 471.359 722.417C472.003 718.659 472.701 715.76 473.453 713.72C474.204 711.68 475.332 710.66 476.835 710.66C478.338 710.66 479.734 711.144 481.022 712.11C482.418 713.076 483.546 714.311 484.405 715.814C485.371 717.317 485.854 718.982 485.854 720.807C485.854 722.525 485.586 724.994 485.049 728.215C484.512 731.436 483.868 735.033 483.116 739.006C482.365 742.979 481.72 747.005 481.183 751.085C480.647 755.058 480.378 758.655 480.378 761.876C480.378 764.56 480.486 767.244 480.7 769.929C480.915 772.613 481.452 774.814 482.311 776.532C483.17 778.25 484.405 779.109 486.015 779.109C489.451 779.109 493.209 776.049 497.289 769.929C501.369 763.808 505.61 755.38 510.012 744.643C512.052 739.919 513.716 735.517 515.005 731.436C516.401 727.356 517.582 723.813 518.548 720.807C519.622 717.693 520.749 715.277 521.93 713.559C523.111 711.841 524.507 710.983 526.118 710.983C528.587 710.983 530.788 711.841 532.721 713.559C534.654 715.277 535.835 717.693 536.264 720.807C536.801 723.921 537.392 727.517 538.036 731.598C538.787 735.678 539.539 739.865 540.291 744.16C541.042 748.347 541.847 752.266 542.706 755.917C544.317 762.144 545.981 767.244 547.699 771.217C549.524 775.082 551.027 778.196 552.209 780.558C553.497 782.813 554.141 784.692 554.141 786.195C554.141 787.483 553.819 788.665 553.175 789.738C552.638 790.812 551.886 791.617 550.92 792.154C549.954 792.798 548.88 793.12 547.699 793.12C544.048 793.12 540.881 790.651 538.197 785.712C535.513 780.773 532.989 774.17 530.627 765.902C529.554 762.037 528.48 757.903 527.406 753.501C526.44 749.099 525.581 744.697 524.829 740.294C524.078 735.892 523.487 731.812 523.058 728.054H528.534C527.46 731.92 526.118 736.214 524.507 740.939C523.004 745.556 520.803 751.193 517.904 757.849C515.327 764.292 512.213 770.251 508.563 775.727C504.912 781.095 500.939 785.39 496.645 788.611C492.457 791.832 488.055 793.443 483.438 793.443Z" fill="#324AB2"/>
<path d="M603.195 793.12C595.572 793.12 589.022 791.617 583.546 788.611C578.07 785.497 573.829 781.202 570.823 775.727C567.924 770.143 566.474 763.647 566.474 756.239C566.474 749.904 567.709 743.999 570.179 738.523C572.756 733.047 576.245 728.269 580.647 724.189C585.049 720.002 590.15 716.781 595.947 714.526C601.745 712.164 607.866 710.983 614.308 710.983C616.455 710.983 618.441 711.305 620.267 711.949C622.199 712.486 623.703 713.452 624.776 714.848C625.957 716.244 626.548 718.23 626.548 720.807C626.548 722.74 626.065 724.35 625.098 725.639C624.239 726.927 622.897 727.571 621.072 727.571C619.891 727.571 618.925 727.41 618.173 727.088C617.529 726.659 616.777 726.283 615.918 725.961C615.167 725.531 613.878 725.316 612.053 725.316C606.148 725.316 600.833 726.712 596.109 729.504C591.492 732.295 587.787 736.107 584.996 740.939C582.312 745.77 580.969 751.3 580.969 757.527C580.969 761.929 581.828 765.741 583.546 768.962C585.372 772.183 587.948 774.706 591.277 776.532C594.713 778.357 598.685 779.27 603.195 779.27C607.919 779.27 611.516 778.787 613.986 777.82C616.562 776.746 618.495 775.565 619.784 774.277C621.072 772.881 622.199 771.7 623.166 770.734C624.132 769.66 625.367 769.123 626.87 769.123C628.373 769.123 629.554 769.606 630.413 770.573C631.272 771.539 631.702 772.881 631.702 774.599C631.702 778.25 630.413 781.471 627.836 784.262C625.367 786.947 621.985 789.094 617.69 790.705C613.395 792.315 608.563 793.12 603.195 793.12Z" fill="#324AB2"/>
<path d="M645.141 728.215C642.671 728.215 640.631 727.464 639.021 725.961C637.41 724.457 636.605 722.74 636.605 720.807C636.605 719.626 637.034 718.606 637.893 717.747C638.752 716.888 640.309 716.136 642.564 715.492C646.322 714.418 651.315 713.452 657.542 712.593C663.877 711.734 671.393 711.305 680.09 711.305C684.599 711.305 688.733 711.412 692.491 711.627C696.356 711.734 700.651 712.11 705.375 712.754C709.133 713.184 712.14 714.043 714.394 715.331C716.649 716.619 717.776 718.069 717.776 719.679C717.776 720.861 717.508 721.934 716.971 722.901C716.434 723.76 715.575 724.511 714.394 725.155C713.321 725.692 711.925 725.961 710.207 725.961C707.952 725.961 705.268 725.853 702.154 725.639C699.148 725.316 695.927 725.048 692.491 724.833C689.055 724.511 685.566 724.35 682.022 724.35C674.721 724.35 668.816 724.672 664.306 725.316C659.904 725.961 656.254 726.605 653.355 727.249C650.563 727.893 647.825 728.215 645.141 728.215ZM680.734 793.604C678.479 793.604 676.6 792.637 675.097 790.705C673.701 788.772 672.52 786.302 671.554 783.296C670.802 781.041 670.158 777.981 669.621 774.116C669.192 770.143 668.87 765.848 668.655 761.232C668.44 756.507 668.333 751.944 668.333 747.542C668.333 741.637 668.333 736.429 668.333 731.92C668.333 727.303 668.333 723.491 668.333 720.485L682.667 719.518C682.559 721.344 682.506 723.652 682.506 726.444C682.506 729.128 682.506 732.188 682.506 735.624C682.506 738.952 682.506 742.388 682.506 745.931C682.506 749.367 682.506 752.696 682.506 755.917C682.506 761.285 682.72 765.795 683.15 769.445C683.579 772.989 684.062 775.888 684.599 778.142C685.136 780.397 685.619 782.276 686.049 783.779C686.478 785.175 686.693 786.463 686.693 787.645C686.693 788.826 686.425 789.899 685.888 790.866C685.351 791.725 684.599 792.369 683.633 792.798C682.774 793.335 681.808 793.604 680.734 793.604Z" fill="#324AB2"/>
<path d="M743.107 793.443C739.564 793.443 736.611 792.584 734.249 790.866C731.995 789.148 730.223 786.893 728.935 784.101C727.753 781.202 726.895 778.089 726.358 774.76C725.928 771.324 725.713 767.996 725.713 764.775C725.713 761.983 725.875 758.655 726.197 754.789C726.626 750.924 727.109 746.898 727.646 742.71C728.183 738.523 728.774 734.604 729.418 730.953C730.062 727.303 730.599 724.457 731.028 722.417C731.672 718.659 732.37 715.76 733.122 713.72C733.874 711.68 735.001 710.66 736.504 710.66C738.007 710.66 739.403 711.144 740.692 712.11C742.087 713.076 743.215 714.311 744.074 715.814C745.04 717.317 745.523 718.982 745.523 720.807C745.523 722.525 745.255 724.994 744.718 728.215C744.181 731.436 743.537 735.033 742.785 739.006C742.034 742.979 741.389 747.005 740.853 751.085C740.316 755.058 740.047 758.655 740.047 761.876C740.047 764.56 740.155 767.244 740.369 769.929C740.584 772.613 741.121 774.814 741.98 776.532C742.839 778.25 744.074 779.109 745.684 779.109C749.12 779.109 752.878 776.049 756.958 769.929C761.038 763.808 765.279 755.38 769.681 744.643C771.721 739.919 773.386 735.517 774.674 731.436C776.07 727.356 777.251 723.813 778.217 720.807C779.291 717.693 780.418 715.277 781.599 713.559C782.78 711.841 784.176 710.983 785.787 710.983C788.256 710.983 790.457 711.841 792.39 713.559C794.323 715.277 795.504 717.693 795.933 720.807C796.47 723.921 797.061 727.517 797.705 731.598C798.456 735.678 799.208 739.865 799.96 744.16C800.711 748.347 801.517 752.266 802.376 755.917C803.986 762.144 805.65 767.244 807.368 771.217C809.193 775.082 810.697 778.196 811.878 780.558C813.166 782.813 813.81 784.692 813.81 786.195C813.81 787.483 813.488 788.665 812.844 789.738C812.307 790.812 811.556 791.617 810.589 792.154C809.623 792.798 808.549 793.12 807.368 793.12C803.718 793.12 800.55 790.651 797.866 785.712C795.182 780.773 792.658 774.17 790.296 765.902C789.223 762.037 788.149 757.903 787.075 753.501C786.109 749.099 785.25 744.697 784.498 740.294C783.747 735.892 783.156 731.812 782.727 728.054H788.203C787.129 731.92 785.787 736.214 784.176 740.939C782.673 745.556 780.472 751.193 777.573 757.849C774.996 764.292 771.882 770.251 768.232 775.727C764.581 781.095 760.609 785.39 756.314 788.611C752.126 791.832 747.724 793.443 743.107 793.443Z" fill="#324AB2"/>
<path d="M894.067 793.443C890.524 793.443 886.659 792.53 882.471 790.705C878.391 788.879 874.257 786.41 870.07 783.296C865.883 780.182 861.964 776.693 858.313 772.828C854.662 768.962 851.495 765.043 848.811 761.071C847.63 759.353 846.663 757.796 845.912 756.4C845.268 754.897 844.946 753.447 844.946 752.051C844.946 751.193 845.107 750.28 845.429 749.314C845.751 748.24 846.288 747.274 847.039 746.415C848.006 744.697 849.777 742.388 852.354 739.489C854.931 736.59 857.937 733.477 861.373 730.148C864.916 726.712 868.621 723.491 872.486 720.485C876.351 717.478 880.055 715.009 883.599 713.076C887.249 711.144 890.47 710.177 893.262 710.177C894.443 710.177 895.409 710.446 896.161 710.983C897.02 711.519 897.718 712.217 898.255 713.076C898.791 713.935 899.06 714.902 899.06 715.975C899.06 718.23 897.879 720.216 895.517 721.934C893.154 723.652 890.47 725.37 887.464 727.088C881.881 730.416 877.049 733.799 872.969 737.234C868.889 740.563 865.668 743.516 863.306 746.092C861.051 748.669 859.924 750.495 859.924 751.568C859.924 752.642 860.997 754.628 863.145 757.527C865.399 760.319 868.513 763.433 872.486 766.869C876.459 770.304 881.022 773.472 886.175 776.371C888.43 777.552 890.739 778.733 893.101 779.914C895.463 781.095 897.396 782.222 898.899 783.296C900.509 784.37 901.315 785.497 901.315 786.678C901.315 787.859 900.993 788.987 900.348 790.06C899.704 791.134 898.791 791.939 897.61 792.476C896.537 793.12 895.356 793.443 894.067 793.443ZM840.436 793.281C837.644 793.281 835.551 791.778 834.155 788.772C832.759 785.766 831.793 781.471 831.256 775.888C830.719 770.197 830.451 763.379 830.451 755.434C830.451 752.642 830.558 749.582 830.773 746.254C830.987 742.925 831.149 739.489 831.256 735.946C831.471 732.403 831.578 728.913 831.578 725.477C831.578 724.619 831.578 723.76 831.578 722.901C831.578 721.934 831.578 720.968 831.578 720.002C831.578 717.854 831.793 716.083 832.222 714.687C832.759 713.291 833.457 712.217 834.316 711.466C835.282 710.607 836.302 710.177 837.376 710.177C839.845 710.177 841.939 711.305 843.657 713.559C845.482 715.707 846.395 718.767 846.395 722.74C846.395 725.424 846.234 728.752 845.912 732.725C845.59 736.59 845.214 740.563 844.784 744.643C844.462 748.723 844.301 752.32 844.301 755.434C844.301 761.017 844.516 766.01 844.946 770.412C845.375 774.814 845.804 778.464 846.234 781.363C846.663 784.155 846.878 786.088 846.878 787.161C846.878 788.45 846.61 789.577 846.073 790.544C845.536 791.402 844.784 792.047 843.818 792.476C842.852 793.013 841.724 793.281 840.436 793.281Z" fill="#324AB2"/>
<path d="M935.068 793.281C930.237 793.281 925.995 792.154 922.345 789.899C918.802 787.645 916.064 784.477 914.131 780.397C912.198 776.317 911.232 771.539 911.232 766.063C911.232 760.909 912.037 755.702 913.648 750.441C915.258 745.18 917.513 740.187 920.412 735.463C923.311 730.739 926.747 726.551 930.72 722.901C934.8 719.25 939.256 716.405 944.087 714.365C948.919 712.217 954.073 711.144 959.548 711.144C962.018 711.144 964.058 711.788 965.669 713.076C967.279 714.365 968.084 716.297 968.084 718.874C968.084 720.163 967.655 721.29 966.796 722.256C966.044 723.115 964.863 723.652 963.253 723.867C955.737 724.833 949.134 727.464 943.443 731.759C937.86 736.053 933.511 741.261 930.398 747.381C927.284 753.501 925.727 759.889 925.727 766.546C925.727 769.66 925.995 772.505 926.532 775.082C927.069 777.552 928.25 780.773 930.075 784.746L921.701 773.633C924.17 776.102 926.21 777.713 927.821 778.464C929.539 779.216 931.847 779.592 934.746 779.592C941.618 779.592 947.738 775.512 953.106 767.352C958.582 759.192 962.555 747.327 965.024 731.759C965.454 729.719 966.205 728.162 967.279 727.088C968.353 725.907 969.802 725.316 971.628 725.316C974.204 725.316 976.406 726.336 978.231 728.376C980.056 730.309 981.183 732.886 981.613 736.107C982.579 742.335 983.599 747.918 984.673 752.857C985.854 757.688 987.518 762.305 989.666 766.707C991.813 771.002 994.712 775.565 998.363 780.397C999.329 781.471 999.866 782.706 999.973 784.101C1000.08 785.497 999.866 786.893 999.329 788.289C998.9 789.577 998.148 790.651 997.074 791.51C996.108 792.369 994.927 792.798 993.531 792.798C992.028 792.798 990.793 792.476 989.827 791.832C988.86 791.188 987.948 790.382 987.089 789.416C985.049 786.517 983.116 783.672 981.291 780.88C979.466 777.981 977.801 774.707 976.298 771.056C974.795 767.298 973.507 762.896 972.433 757.849C971.359 752.696 970.608 746.629 970.178 739.65L975.493 739.489C973.99 749.367 971.842 757.796 969.051 764.775C966.259 771.646 962.984 777.176 959.226 781.363C955.468 785.443 951.496 788.45 947.308 790.382C943.228 792.315 939.148 793.281 935.068 793.281Z" fill="#324AB2"/>
<path d="M215.239 902.134C215.883 899.718 216.689 897.021 217.655 894.041C218.621 890.981 219.708 887.8 220.916 884.499C222.124 881.197 223.413 877.976 224.782 874.835C226.151 871.614 227.479 868.715 228.768 866.138C230.459 862.837 232.15 859.737 233.841 856.838C235.613 853.939 237.344 851.603 239.035 849.832C240.807 847.98 242.498 847.053 244.108 847.053C245.638 847.053 247.168 847.738 248.698 849.107C250.228 850.476 251.799 852.731 253.409 855.871C254.537 858.126 255.825 860.985 257.274 864.447C258.724 867.91 260.133 871.695 261.502 875.802C262.952 879.828 264.28 883.895 265.488 888.002C266.777 892.109 267.783 895.893 268.508 899.356L257.758 900.322C256.952 896.457 255.865 892.27 254.496 887.76C253.127 883.17 251.638 878.741 250.027 874.473C248.497 870.205 247.007 866.501 245.558 863.36C244.108 860.139 242.82 857.965 241.692 856.838L245.92 855.871C243.907 858.609 241.853 861.83 239.76 865.535C237.747 869.239 235.854 873.225 234.083 877.493C232.875 880.633 231.747 883.613 230.7 886.431C229.734 889.25 228.808 891.988 227.922 894.645C227.117 897.222 226.352 899.879 225.627 902.617L215.239 902.134ZM270.682 925.205C269.152 925.205 267.944 924.642 267.059 923.514C266.253 922.467 265.851 921.219 265.851 919.77C265.851 918.884 266.052 917.434 266.455 915.421C266.938 913.489 267.381 911.234 267.783 908.657C268.266 906.161 268.508 903.624 268.508 901.047L274.185 907.691C272.977 907.53 271.165 907.368 268.75 907.207C266.414 907.046 263.435 906.966 259.811 906.966C256.429 906.966 252.926 907.006 249.302 907.087C245.759 907.087 242.256 907.127 238.793 907.207C235.331 907.288 231.908 907.449 228.526 907.691C225.225 907.852 222.084 908.053 219.105 908.295C216.206 908.617 213.548 908.979 211.132 909.382L214.514 905.154C214.514 906.201 214.635 907.489 214.877 909.019C215.118 910.63 215.36 912.24 215.602 913.851C215.924 915.461 216.165 916.911 216.326 918.199C216.568 919.568 216.689 920.535 216.689 921.098C216.689 922.065 216.367 922.91 215.722 923.635C215.078 924.36 214.192 924.722 213.065 924.722C211.132 924.722 209.602 923.957 208.475 922.427C207.428 920.897 206.703 919.085 206.301 916.991C205.979 915.703 205.697 914.052 205.455 912.039C205.214 910.026 205.093 908.456 205.093 907.328C205.093 906.04 205.294 904.912 205.697 903.946C206.099 902.899 206.784 902.054 207.75 901.409C208.797 900.685 210.206 900.161 211.978 899.839C213.991 899.517 216.689 899.235 220.071 898.994C223.534 898.672 227.359 898.39 231.546 898.148C235.814 897.906 240.203 897.745 244.712 897.665C249.222 897.504 253.57 897.423 257.758 897.423C259.127 897.423 260.576 897.423 262.106 897.423C263.717 897.423 265.327 897.464 266.938 897.544C268.629 897.625 270.32 897.786 272.011 898.027C274.427 898.269 276.158 898.994 277.205 900.202C278.332 901.329 278.896 903.06 278.896 905.396C278.896 907.006 278.654 908.939 278.171 911.194C277.769 913.448 277.205 915.623 276.48 917.716C275.755 919.89 274.91 921.662 273.944 923.031C272.977 924.481 271.89 925.205 270.682 925.205Z" fill="#53A1FB"/>
<path d="M290.567 909.14C289.44 909.14 288.474 908.778 287.669 908.053C286.944 907.409 286.34 906.523 285.857 905.396C285.454 904.268 285.253 903.06 285.253 901.772C285.253 900.322 285.655 898.39 286.461 895.974C287.266 893.477 288.313 890.699 289.601 887.639C290.97 884.499 292.379 881.358 293.829 878.218C295.359 874.916 297.01 871.655 298.781 868.433C300.553 865.132 302.244 862.193 303.855 859.616C305.465 856.958 306.874 854.865 308.082 853.335C309.854 851.08 311.746 849.429 313.759 848.382C315.853 847.255 317.947 846.691 320.04 846.691C321.732 846.691 323.101 847.335 324.147 848.624C325.194 849.912 326.08 851.563 326.805 853.576C327.691 855.75 328.536 858.247 329.341 861.065C330.227 863.884 331.153 866.783 332.12 869.762C333.086 872.661 334.093 875.48 335.139 878.218C336.428 881.6 337.595 884.499 338.642 886.915C339.77 889.33 340.817 891.384 341.783 893.075C342.749 894.766 343.635 896.215 344.44 897.423C345.246 898.47 345.89 899.356 346.373 900.081C346.856 900.805 347.098 901.611 347.098 902.497C347.098 903.704 346.856 904.792 346.373 905.758C345.89 906.724 345.205 907.449 344.319 907.932C343.434 908.496 342.467 908.778 341.42 908.778C340.132 908.778 338.763 908.053 337.314 906.603C335.945 905.073 334.576 903.02 333.207 900.443C331.838 897.866 330.469 895.088 329.1 892.109C328.375 890.256 327.368 887.8 326.08 884.74C324.872 881.6 323.624 878.218 322.336 874.594C321.047 870.89 319.839 867.346 318.712 863.964C317.584 860.582 316.739 857.764 316.175 855.509H319.437C317.584 857.683 315.611 860.421 313.518 863.723C311.505 867.024 309.451 870.729 307.357 874.835C305.344 878.942 303.371 883.291 301.439 887.881C299.506 892.39 297.734 897.021 296.124 901.772C295.48 903.785 294.755 905.516 293.95 906.966C293.144 908.415 292.017 909.14 290.567 909.14Z" fill="#53A1FB"/>
<path d="M402.259 909.019C400.165 909.019 398.474 908.254 397.185 906.724C395.977 905.194 395.011 903.181 394.286 900.685C393.964 899.396 393.642 897.745 393.32 895.732C392.998 893.639 392.716 891.424 392.475 889.089C392.313 886.753 392.233 884.66 392.233 882.808C392.233 881.358 392.273 879.546 392.354 877.372C392.515 875.198 392.676 872.983 392.837 870.729C392.998 868.393 393.119 866.259 393.199 864.327C393.28 862.313 393.32 860.783 393.32 859.737C393.32 858.69 392.958 857.925 392.233 857.442C391.508 856.878 390.381 856.596 388.851 856.596C387.562 856.596 386.153 856.677 384.623 856.838C383.093 856.999 381.483 857.24 379.791 857.562C375.926 858.368 372.544 859.656 369.645 861.428C366.746 863.119 365.297 865.051 365.297 867.226C365.297 869.158 365.941 870.849 367.229 872.299C368.598 873.748 370.772 874.916 373.752 875.802C376.812 876.688 380.879 877.13 385.952 877.13C387.562 877.13 389.173 877.09 390.783 877.01C392.475 876.929 394.045 876.808 395.494 876.647C397.024 876.406 398.272 876.245 399.239 876.164C400.286 876.003 401.01 875.923 401.413 875.923C403.346 875.923 404.996 876.043 406.365 876.285C407.734 876.526 408.419 877.372 408.419 878.822C408.419 880.432 407.614 881.721 406.003 882.687C404.393 883.653 402.299 884.338 399.722 884.74C397.145 885.143 394.327 885.344 391.267 885.344H379.55C375.362 885.344 371.376 884.66 367.592 883.291C363.807 881.841 360.706 879.828 358.291 877.251C355.955 874.594 354.788 871.534 354.788 868.071C354.788 865.736 355.432 863.36 356.72 860.944C358.009 858.529 360.103 856.274 363.001 854.18C365.9 852.086 369.766 850.395 374.597 849.107C378.141 848.141 381.08 847.537 383.415 847.295C385.75 847.053 388.327 846.933 391.146 846.933C394.125 846.933 396.541 847.376 398.393 848.261C400.326 849.147 401.735 850.315 402.621 851.764C403.507 853.214 403.95 854.865 403.95 856.717C403.95 858.488 403.829 860.622 403.587 863.119C403.346 865.615 403.104 868.111 402.863 870.608C402.701 873.024 402.621 875.198 402.621 877.13C402.621 879.063 402.701 881.157 402.863 883.412C403.024 885.586 403.185 887.76 403.346 889.934C403.587 892.028 403.829 893.88 404.07 895.491C404.393 897.262 404.795 899.114 405.278 901.047C405.762 902.899 406.003 904.147 406.003 904.792C406.003 905.999 405.641 907.006 404.916 907.811C404.191 908.617 403.305 909.019 402.259 909.019ZM359.619 908.898C358.25 908.898 357.083 908.456 356.116 907.57C355.15 906.603 354.667 905.476 354.667 904.188C354.667 903.302 355.07 902.456 355.875 901.651C356.761 900.846 358.17 899.879 360.103 898.752C363.565 896.819 366.907 894.323 370.128 891.263C373.43 888.203 376.611 884.781 379.671 880.996L388.005 884.74C385.912 887.72 383.536 890.659 380.879 893.558C378.302 896.376 375.685 898.953 373.027 901.289C370.45 903.624 367.994 905.476 365.659 906.845C363.324 908.214 361.31 908.898 359.619 908.898Z" fill="#53A1FB"/>
<path d="M467.202 902.134C467.846 899.718 468.651 897.021 469.617 894.041C470.584 890.981 471.671 887.8 472.879 884.499C474.087 881.197 475.375 877.976 476.744 874.835C478.113 871.614 479.442 868.715 480.73 866.138C482.421 862.837 484.112 859.737 485.803 856.838C487.575 853.939 489.306 851.603 490.997 849.832C492.769 847.98 494.46 847.053 496.071 847.053C497.601 847.053 499.131 847.738 500.661 849.107C502.191 850.476 503.761 852.731 505.372 855.871C506.499 858.126 507.787 860.985 509.237 864.447C510.686 867.91 512.096 871.695 513.465 875.802C514.914 879.828 516.243 883.895 517.451 888.002C518.739 892.109 519.746 895.893 520.47 899.356L509.72 900.322C508.915 896.457 507.828 892.27 506.459 887.76C505.09 883.17 503.6 878.741 501.989 874.473C500.459 870.205 498.97 866.501 497.52 863.36C496.071 860.139 494.782 857.965 493.655 856.838L497.883 855.871C495.869 858.609 493.816 861.83 491.722 865.535C489.709 869.239 487.817 873.225 486.045 877.493C484.837 880.633 483.71 883.613 482.663 886.431C481.697 889.25 480.771 891.988 479.885 894.645C479.079 897.222 478.314 899.879 477.59 902.617L467.202 902.134ZM522.645 925.205C521.115 925.205 519.907 924.642 519.021 923.514C518.216 922.467 517.813 921.219 517.813 919.77C517.813 918.884 518.014 917.434 518.417 915.421C518.9 913.489 519.343 911.234 519.746 908.657C520.229 906.161 520.47 903.624 520.47 901.047L526.148 907.691C524.94 907.53 523.128 907.368 520.712 907.207C518.377 907.046 515.397 906.966 511.774 906.966C508.391 906.966 504.888 907.006 501.265 907.087C497.722 907.087 494.219 907.127 490.756 907.207C487.293 907.288 483.871 907.449 480.489 907.691C477.187 907.852 474.046 908.053 471.067 908.295C468.168 908.617 465.511 908.979 463.095 909.382L466.477 905.154C466.477 906.201 466.598 907.489 466.839 909.019C467.081 910.63 467.322 912.24 467.564 913.851C467.886 915.461 468.128 916.911 468.289 918.199C468.53 919.568 468.651 920.535 468.651 921.098C468.651 922.065 468.329 922.91 467.685 923.635C467.041 924.36 466.155 924.722 465.027 924.722C463.095 924.722 461.565 923.957 460.437 922.427C459.391 920.897 458.666 919.085 458.263 916.991C457.941 915.703 457.659 914.052 457.418 912.039C457.176 910.026 457.055 908.456 457.055 907.328C457.055 906.04 457.257 904.912 457.659 903.946C458.062 902.899 458.746 902.054 459.713 901.409C460.759 900.685 462.169 900.161 463.94 899.839C465.953 899.517 468.651 899.235 472.033 898.994C475.496 898.672 479.321 898.39 483.508 898.148C487.776 897.906 492.165 897.745 496.675 897.665C501.184 897.504 505.533 897.423 509.72 897.423C511.089 897.423 512.539 897.423 514.069 897.423C515.679 897.423 517.29 897.464 518.9 897.544C520.591 897.625 522.282 897.786 523.973 898.027C526.389 898.269 528.121 898.994 529.167 900.202C530.295 901.329 530.859 903.06 530.859 905.396C530.859 907.006 530.617 908.939 530.134 911.194C529.731 913.448 529.167 915.623 528.443 917.716C527.718 919.89 526.872 921.662 525.906 923.031C524.94 924.481 523.853 925.205 522.645 925.205Z" fill="#53A1FB"/>
<path d="M563.736 908.898C559.146 908.898 555.2 908.254 551.899 906.966C548.678 905.677 545.98 903.825 543.806 901.409C541.712 898.994 540.142 896.175 539.095 892.954C538.129 889.733 537.645 886.19 537.645 882.324C537.645 878.218 538.37 874.111 539.82 870.004C541.35 865.816 543.524 862.032 546.342 858.649C549.161 855.187 552.543 852.409 556.489 850.315C560.435 848.221 564.864 847.174 569.776 847.174C573.561 847.174 576.862 847.859 579.681 849.228C582.499 850.597 584.673 852.65 586.203 855.388C587.814 858.045 588.619 861.428 588.619 865.535C588.619 868.836 587.854 871.735 586.324 874.231C584.794 876.728 582.66 878.862 579.922 880.633C577.265 882.324 574.124 883.653 570.501 884.619C566.877 885.505 562.971 885.948 558.784 885.948C553.952 885.948 550.57 885.304 548.637 884.016C546.705 882.647 545.738 881.157 545.738 879.546C545.738 878.58 545.98 877.895 546.463 877.493C546.946 877.01 547.752 876.768 548.879 876.768C549.765 876.768 550.852 876.929 552.14 877.251C553.509 877.493 555.442 877.614 557.938 877.614C561.965 877.614 565.468 877.13 568.447 876.164C571.507 875.117 573.923 873.668 575.695 871.816C577.466 869.964 578.352 867.83 578.352 865.414C578.352 862.676 577.668 860.622 576.299 859.253C574.93 857.884 572.675 857.2 569.534 857.2C566.394 857.2 563.495 857.925 560.837 859.374C558.26 860.824 556.006 862.797 554.073 865.293C552.221 867.789 550.771 870.648 549.725 873.869C548.678 877.01 548.154 880.311 548.154 883.774C548.154 886.673 548.637 889.29 549.604 891.625C550.57 893.88 552.14 895.732 554.315 897.182C556.489 898.551 559.428 899.235 563.132 899.235C567.481 899.235 571.105 898.712 574.004 897.665C576.983 896.618 579.439 895.45 581.372 894.162C583.304 892.793 584.915 891.625 586.203 890.659C587.572 889.612 588.821 889.089 589.948 889.089C591.075 889.089 591.84 889.411 592.243 890.055C592.646 890.699 592.847 891.746 592.847 893.196C592.847 894.806 592.042 896.538 590.431 898.39C588.901 900.161 586.767 901.852 584.029 903.463C581.291 905.073 578.191 906.402 574.728 907.449C571.266 908.415 567.602 908.898 563.736 908.898Z" fill="#53A1FB"/>
<path d="M603.245 860.099C601.393 860.099 599.863 859.535 598.655 858.408C597.447 857.28 596.843 855.992 596.843 854.543C596.843 853.657 597.166 852.892 597.81 852.248C598.454 851.603 599.622 851.04 601.313 850.556C604.131 849.751 607.876 849.026 612.546 848.382C617.297 847.738 622.934 847.416 629.457 847.416C632.839 847.416 635.939 847.496 638.758 847.657C641.657 847.738 644.878 848.02 648.421 848.503C651.24 848.825 653.494 849.469 655.185 850.436C656.877 851.402 657.722 852.489 657.722 853.697C657.722 854.583 657.521 855.388 657.118 856.113C656.715 856.757 656.071 857.321 655.185 857.804C654.38 858.207 653.333 858.408 652.045 858.408C650.354 858.408 648.341 858.327 646.005 858.166C643.751 857.925 641.335 857.723 638.758 857.562C636.181 857.321 633.564 857.2 630.906 857.2C625.431 857.2 621.002 857.442 617.619 857.925C614.318 858.408 611.58 858.891 609.406 859.374C607.312 859.857 605.259 860.099 603.245 860.099ZM629.94 909.14C628.249 909.14 626.84 908.415 625.712 906.966C624.666 905.516 623.78 903.664 623.055 901.409C622.491 899.718 622.008 897.423 621.606 894.524C621.283 891.545 621.042 888.324 620.881 884.861C620.72 881.318 620.639 877.895 620.639 874.594C620.639 870.165 620.639 866.259 620.639 862.877C620.639 859.414 620.639 856.556 620.639 854.301L631.39 853.576C631.309 854.945 631.269 856.677 631.269 858.77C631.269 860.783 631.269 863.078 631.269 865.655C631.269 868.152 631.269 870.729 631.269 873.386C631.269 875.963 631.269 878.459 631.269 880.875C631.269 884.901 631.43 888.283 631.752 891.021C632.074 893.679 632.436 895.853 632.839 897.544C633.242 899.235 633.604 900.644 633.926 901.772C634.248 902.819 634.409 903.785 634.409 904.671C634.409 905.557 634.208 906.362 633.805 907.087C633.403 907.731 632.839 908.214 632.114 908.536C631.47 908.939 630.745 909.14 629.94 909.14Z" fill="#53A1FB"/>
<path d="M685.943 908.898C679.823 908.898 674.83 907.771 670.965 905.516C667.18 903.181 664.361 900.04 662.509 896.095C660.738 892.068 659.852 887.478 659.852 882.324C659.852 878.218 660.577 874.111 662.026 870.004C663.556 865.816 665.73 862.032 668.549 858.649C671.367 855.187 674.749 852.409 678.695 850.315C682.641 848.221 687.07 847.174 691.982 847.174C695.767 847.174 699.069 847.859 701.887 849.228C704.706 850.597 706.88 852.65 708.41 855.388C710.02 858.045 710.826 861.428 710.826 865.535C710.826 869.883 709.497 873.587 706.84 876.647C704.263 879.627 700.72 881.922 696.21 883.532C691.701 885.143 686.627 885.948 680.99 885.948C676.159 885.948 672.777 885.304 670.844 884.016C668.911 882.647 667.945 881.157 667.945 879.546C667.945 878.58 668.187 877.895 668.67 877.493C669.153 877.01 669.958 876.768 671.086 876.768C671.971 876.768 673.058 876.929 674.347 877.251C675.716 877.493 677.648 877.614 680.145 877.614C684.171 877.614 687.674 877.13 690.654 876.164C693.714 875.117 696.13 873.668 697.901 871.816C699.673 869.964 700.559 867.83 700.559 865.414C700.559 862.676 699.874 860.622 698.505 859.253C697.136 857.884 694.881 857.2 691.741 857.2C688.6 857.2 685.701 857.925 683.044 859.374C680.467 860.824 678.212 862.797 676.28 865.293C674.427 867.789 672.978 870.648 671.931 873.869C670.884 877.01 670.361 880.311 670.361 883.774C670.361 886.673 670.844 889.29 671.81 891.625C672.777 893.88 674.347 895.732 676.521 897.182C678.695 898.551 681.635 899.235 685.339 899.235C689.687 899.235 693.311 898.712 696.21 897.665C699.19 896.618 701.646 895.45 703.578 894.162C705.511 892.793 707.121 891.625 708.41 890.659C709.779 889.612 711.027 889.089 712.154 889.089C713.282 889.089 714.047 889.411 714.449 890.055C714.852 890.699 715.053 891.746 715.053 893.196C715.053 894.806 714.248 896.538 712.638 898.39C711.108 900.161 708.974 901.852 706.236 903.463C703.498 905.073 700.397 906.402 696.935 907.449C693.472 908.415 689.808 908.898 685.943 908.898Z" fill="#53A1FB"/>
<path d="M757.896 836.424C754.192 836.424 750.971 835.578 748.233 833.887C745.495 832.116 743.402 830.022 741.952 827.606C740.503 825.19 739.778 822.976 739.778 820.963C739.778 819.191 740.221 817.822 741.107 816.856C742.073 815.889 743.281 815.406 744.73 815.406C745.938 815.406 747.025 816.05 747.992 817.339C748.958 818.547 749.924 820.037 750.891 821.808C751.776 823.419 752.783 824.707 753.91 825.673C755.118 826.64 756.85 827.123 759.104 827.123C760.151 827.123 761.158 826.962 762.124 826.64C763.171 826.237 764.137 825.754 765.023 825.19C765.909 824.546 766.714 823.862 767.439 823.137C768.405 822.332 769.291 821.526 770.096 820.721C770.982 819.916 771.828 819.272 772.633 818.788C773.519 818.225 774.405 817.943 775.29 817.943C776.337 817.943 777.102 818.305 777.585 819.03C778.149 819.674 778.431 820.52 778.431 821.567C778.431 823.097 777.908 824.707 776.861 826.398C775.894 828.089 774.445 829.7 772.512 831.23C770.66 832.76 768.486 834.008 765.989 834.974C763.574 835.941 760.876 836.424 757.896 836.424ZM741.952 909.019C739.295 909.019 737.08 908.375 735.309 907.087C733.617 905.798 732.289 904.107 731.322 902.013C730.437 899.839 729.792 897.504 729.39 895.008C729.068 892.431 728.907 889.934 728.907 887.518C728.907 885.425 729.027 882.928 729.269 880.029C729.591 877.13 729.954 874.111 730.356 870.97C730.759 867.83 731.202 864.89 731.685 862.152C732.168 859.414 732.571 857.28 732.893 855.75C733.376 852.932 733.899 850.758 734.463 849.228C735.027 847.698 735.872 846.933 737 846.933C738.127 846.933 739.174 847.295 740.14 848.02C741.187 848.745 742.033 849.671 742.677 850.798C743.402 851.925 743.764 853.174 743.764 854.543C743.764 855.831 743.563 857.683 743.16 860.099C742.757 862.515 742.274 865.212 741.71 868.192C741.147 871.171 740.664 874.191 740.261 877.251C739.858 880.231 739.657 882.928 739.657 885.344C739.657 887.357 739.738 889.371 739.899 891.384C740.06 893.397 740.462 895.048 741.107 896.336C741.751 897.625 742.677 898.269 743.885 898.269C746.462 898.269 749.28 895.974 752.34 891.384C755.4 886.794 758.581 880.472 761.883 872.42C763.413 868.876 764.661 865.575 765.627 862.515C766.674 859.455 767.56 856.797 768.284 854.543C769.09 852.207 769.935 850.395 770.821 849.107C771.707 847.818 772.754 847.174 773.962 847.174C775.814 847.174 777.465 847.818 778.914 849.107C780.364 850.395 781.249 852.207 781.571 854.543C781.974 856.878 782.417 859.575 782.9 862.636C783.464 865.696 784.028 868.836 784.591 872.057C785.155 875.198 785.759 878.137 786.403 880.875C787.611 885.546 788.859 889.371 790.148 892.35C791.517 895.249 792.644 897.584 793.53 899.356C794.496 901.047 794.979 902.456 794.979 903.584C794.979 904.55 794.738 905.436 794.255 906.241C793.852 907.046 793.288 907.65 792.564 908.053C791.839 908.536 791.033 908.778 790.148 908.778C788.296 908.778 786.604 907.932 785.074 906.241C783.625 904.55 782.256 902.174 780.968 899.114C779.76 896.054 778.552 892.471 777.344 888.364C776.539 885.465 775.733 882.365 774.928 879.063C774.203 875.761 773.559 872.46 772.995 869.158C772.432 865.857 771.989 862.797 771.667 859.978H775.774C775.21 861.911 774.566 863.964 773.841 866.138C773.197 868.313 772.391 870.729 771.425 873.386C770.459 875.963 769.251 878.942 767.801 882.324C765.869 887.156 763.533 891.625 760.795 895.732C758.058 899.759 755.078 902.98 751.857 905.396C748.716 907.811 745.415 909.019 741.952 909.019Z" fill="#53A1FB"/>
</svg>
